<svg width="57" height="56" viewBox="0 0 57 56" fill="none" xmlns="http://www.w3.org/2000/svg">
<path d="M20.1504 38.8005C20.1504 39.5166 19.8659 40.2034 19.3596 40.7097C18.8533 41.216 18.1665 41.5005 17.4504 41.5005C16.7344 41.5005 16.0476 41.216 15.5413 40.7097C15.0349 40.2034 14.7505 39.5166 14.7505 38.8005C14.7505 38.0845 15.0349 37.3977 15.5413 36.8914C16.0476 36.385 16.7344 36.1006 17.4504 36.1006C18.1665 36.1006 18.8533 36.385 19.3596 36.8914C19.8659 37.3977 20.1504 38.0845 20.1504 38.8005ZM30.9502 38.8005C30.9502 39.5166 30.6657 40.2034 30.1594 40.7097C29.6531 41.216 28.9663 41.5005 28.2502 41.5005C27.5342 41.5005 26.8474 41.216 26.3411 40.7097C25.8347 40.2034 25.5503 39.5166 25.5503 38.8005C25.5503 38.0845 25.8347 37.3977 26.3411 36.8914C26.8474 36.385 27.5342 36.1006 28.2502 36.1006C28.9663 36.1006 29.6531 36.385 30.1594 36.8914C30.6657 37.3977 30.9502 38.0845 30.9502 38.8005ZM41.75 38.8005C41.75 39.5166 41.4655 40.2034 40.9592 40.7097C40.4529 41.216 39.7661 41.5005 39.05 41.5005C38.334 41.5005 37.6472 41.216 37.1409 40.7097C36.6345 40.2034 36.3501 39.5166 36.3501 38.8005C36.3501 38.0845 36.6345 37.3977 37.1409 36.8914C37.6472 36.385 38.334 36.1006 39.05 36.1006C39.7661 36.1006 40.4529 36.385 40.9592 36.8914C41.4655 37.3977 41.75 38.0845 41.75 38.8005Z" stroke="url(#paint0_linear_1064_3142)" stroke-width="2" stroke-linecap="round"/>
<path d="M12.0503 22.6006V17.2007C12.0503 16.2827 12.1259 15.3782 12.2744 14.5008M44.4497 22.6006V17.2007C44.4499 13.9101 43.448 10.6975 41.5773 7.99035C39.7067 5.28321 37.0559 3.20994 33.9779 2.04645C30.8999 0.882955 27.5405 0.68441 24.3469 1.47724C21.1532 2.27006 18.2767 4.01667 16.1002 6.48461M25.55 55H17.4502C9.81473 55 5.9943 55 3.62374 52.6267C1.25049 50.2562 1.25049 46.4358 1.25049 38.8003C1.25049 31.1648 1.25049 27.3444 3.62374 24.9739C5.9943 22.6006 9.81473 22.6006 17.4502 22.6006H39.0498C46.6852 22.6006 50.5057 22.6006 52.8762 24.9739C55.2495 27.3444 55.2495 31.1648 55.2495 38.8003C55.2495 46.4358 55.2495 50.2562 52.8762 52.6267C50.5057 55 46.6852 55 39.0498 55H36.3498" stroke="url(#paint1_linear_1064_3142)" stroke-width="2" stroke-linecap="round"/>
<defs>
<linearGradient id="paint0_linear_1064_3142" x1="30.9502" y1="41.355" x2="34.3554" y2="34.5825" gradientUnits="userSpaceOnUse">
<stop stop-color="#0073FF"/>
<stop offset="1" stop-color="#00DEFF"/>
</linearGradient>
<linearGradient id="paint1_linear_1064_3142" x1="33.6499" y1="53.5454" x2="62.789" y2="41.955" gradientUnits="userSpaceOnUse">
<stop stop-color="#0073FF"/>
<stop offset="1" stop-color="#00DEFF"/>
</linearGradient>
</defs>
</svg>
