<svg width="65" height="65" viewBox="0 0 65 65" fill="none" xmlns="http://www.w3.org/2000/svg">
<g clip-path="url(#clip0_23_330)">
<path d="M44.8856 51.2061C44.6809 51.0017 44.4115 50.8745 44.1235 50.8463C43.8355 50.8181 43.5466 50.8906 43.306 51.0515C43.0655 51.2124 42.8882 51.4518 42.8043 51.7287C42.7204 52.0057 42.7352 52.3032 42.846 52.5705C42.9569 52.8379 43.157 53.0585 43.4123 53.1948C43.6675 53.3311 43.9622 53.3747 44.246 53.3182C44.5298 53.2617 44.7853 53.1085 44.9688 52.8847C45.1524 52.661 45.2526 52.3806 45.2526 52.0912C45.2514 51.7594 45.1195 51.4414 44.8856 51.2061Z" fill="url(#paint0_linear_23_330)"/>
<path d="M64.1845 26.3043C64.068 26.1492 63.917 26.0233 63.7435 25.9365C63.5699 25.8498 63.3786 25.8045 63.1846 25.8044H58.0848V2.01757C58.0848 1.85282 58.0523 1.6897 57.9892 1.53755C57.926 1.38539 57.8334 1.2472 57.7167 1.1309C57.6001 1.01459 57.4616 0.922459 57.3092 0.859779C57.1569 0.797099 56.9936 0.765105 56.8289 0.765631H33.7951C33.463 0.765631 33.1446 0.897531 32.9098 1.13232C32.675 1.3671 32.5431 1.68553 32.5431 2.01757V11.6571H19.6338C19.3018 11.6571 18.9833 11.789 18.7485 12.0238C18.5138 12.2585 18.3818 12.577 18.3818 12.909V25.8024H13.7381C13.5435 25.8025 13.3516 25.848 13.1777 25.9352C13.0038 26.0225 12.8526 26.1491 12.7361 26.3049C12.6196 26.4608 12.5411 26.6417 12.5067 26.8332C12.4724 27.0247 12.4831 27.2216 12.5382 27.4083L19.9228 52.445C19.9988 52.7045 20.1568 52.9324 20.373 53.0946C20.5893 53.2568 20.8523 53.3446 21.1227 53.345H38.4628C38.6329 53.3546 38.8032 53.3294 38.9632 53.2709C39.1232 53.2125 39.2696 53.122 39.3934 53.0049C39.5173 52.8879 39.6159 52.7469 39.6833 52.5904C39.7507 52.434 39.7855 52.2654 39.7855 52.095C39.7855 51.9247 39.7507 51.7561 39.6833 51.5996C39.6159 51.4432 39.5173 51.3021 39.3934 51.1851C39.2696 51.0681 39.1232 50.9776 38.9632 50.9191C38.8032 50.8607 38.6329 50.8355 38.4628 50.8451H22.0637L15.413 28.3062H61.5107L54.865 50.8391H50.2912C50.1211 50.8295 49.9509 50.8547 49.7909 50.9131C49.6308 50.9716 49.4844 51.0621 49.3606 51.1791C49.2368 51.2961 49.1382 51.4372 49.0707 51.5936C49.0033 51.7501 48.9686 51.9187 48.9686 52.089C48.9686 52.2594 49.0033 52.428 49.0707 52.5844C49.1382 52.7409 49.2368 52.8819 49.3606 52.9989C49.4844 53.116 49.6308 53.2065 49.7909 53.2649C49.9509 53.3234 50.1211 53.3486 50.2912 53.339H55.8009C56.0713 53.3386 56.3343 53.2508 56.5506 53.0886C56.7669 52.9264 56.9249 52.6985 57.0009 52.439L64.3845 27.4083C64.4393 27.2214 64.4498 27.0243 64.4151 26.8327C64.3804 26.641 64.3014 26.4601 64.1845 26.3043ZM40.9087 25.8044H20.8867V14.165H40.9147V25.8024L40.9087 25.8044ZM55.572 25.8044H43.4126V12.908C43.4126 12.576 43.2807 12.2575 43.0459 12.0228C42.8111 11.788 42.4927 11.6561 42.1606 11.6561H35.042V3.2655H55.572V25.8044Z" fill="url(#paint1_linear_23_330)"/>
<path d="M57.1899 55.5957H18.5649L8.19041 20.4215C8.11439 20.162 7.95643 19.9342 7.74013 19.7719C7.52384 19.6097 7.26084 19.5219 6.99047 19.5215H1.59574C1.42565 19.5119 1.25539 19.5371 1.09537 19.5956C0.93535 19.654 0.788949 19.7445 0.665127 19.8616C0.541306 19.9786 0.442669 20.1196 0.375255 20.2761C0.307842 20.4325 0.273071 20.6011 0.273071 20.7715C0.273071 20.9418 0.307842 21.1104 0.375255 21.2669C0.442669 21.4233 0.541306 21.5644 0.665127 21.6814C0.788949 21.7984 0.93535 21.8889 1.09537 21.9474C1.25539 22.0058 1.42565 22.031 1.59574 22.0214H6.05352L16.428 57.1956C16.504 57.4551 16.662 57.683 16.8783 57.8452C17.0946 58.0074 17.3576 58.0953 17.6279 58.0956H23.8426C23.4765 58.8016 23.2983 59.59 23.3253 60.3848C23.3523 61.1797 23.5834 61.9542 23.9965 62.6338C24.4097 63.3134 24.9908 63.8751 25.684 64.265C26.3772 64.6548 27.1591 64.8596 27.9544 64.8596C28.7497 64.8596 29.5316 64.6548 30.2248 64.265C30.918 63.8751 31.4991 63.3134 31.9123 62.6338C32.3254 61.9542 32.5565 61.1797 32.5835 60.3848C32.6105 59.59 32.4323 58.8016 32.0662 58.0956H42.3107C41.9446 58.8016 41.7664 59.59 41.7934 60.3848C41.8203 61.1797 42.0515 61.9542 42.4646 62.6338C42.8777 63.3134 43.4589 63.8751 44.1521 64.265C44.8453 64.6548 45.6272 64.8596 46.4225 64.8596C47.2178 64.8596 47.9997 64.6548 48.6929 64.265C49.3861 63.8751 49.9672 63.3134 50.3803 62.6338C50.7934 61.9542 51.0246 61.1797 51.0516 60.3848C51.0785 59.59 50.9004 58.8016 50.5343 58.0956H57.1899C57.36 58.1052 57.5303 58.08 57.6903 58.0215C57.8503 57.9631 57.9967 57.8726 58.1205 57.7556C58.2444 57.6386 58.343 57.4975 58.4104 57.341C58.4778 57.1846 58.5126 57.016 58.5126 56.8456C58.5126 56.6753 58.4778 56.5067 58.4104 56.3502C58.343 56.1938 58.2444 56.0527 58.1205 55.9357C57.9967 55.8187 57.8503 55.7282 57.6903 55.6697C57.5303 55.6113 57.36 55.5861 57.1899 55.5957ZM27.9514 62.3554C27.5305 62.3554 27.1191 62.2306 26.7692 61.9967C26.4193 61.7629 26.1465 61.4306 25.9855 61.0418C25.8244 60.653 25.7823 60.2251 25.8644 59.8123C25.9465 59.3996 26.1492 59.0204 26.4468 58.7228C26.7444 58.4252 27.1235 58.2226 27.5363 58.1405C27.949 58.0584 28.3769 58.1005 28.7657 58.2616C29.1545 58.4226 29.4869 58.6954 29.7207 59.0453C29.9545 59.3952 30.0793 59.8066 30.0793 60.2275C30.0785 60.7916 29.8541 61.3324 29.4552 61.7312C29.0563 62.1301 28.5155 62.3546 27.9514 62.3554ZM46.4225 62.3554C46.0016 62.3554 45.5902 62.2306 45.2403 61.9967C44.8903 61.7629 44.6176 61.4306 44.4566 61.0418C44.2955 60.653 44.2534 60.2251 44.3355 59.8123C44.4176 59.3996 44.6202 59.0204 44.9178 58.7228C45.2154 58.4252 45.5946 58.2226 46.0073 58.1405C46.4201 58.0584 46.848 58.1005 47.2368 58.2616C47.6256 58.4226 47.9579 58.6954 48.1917 59.0453C48.4256 59.3952 48.5504 59.8066 48.5504 60.2275C48.5496 60.7916 48.3251 61.3324 47.9262 61.7312C47.5274 62.1301 46.9866 62.3546 46.4225 62.3554Z" fill="url(#paint2_linear_23_330)"/>
<path d="M31.7853 32.3032C31.5804 32.0976 31.3105 31.9696 31.0218 31.9408C30.733 31.912 30.4431 31.9842 30.2017 32.1452C29.9602 32.3062 29.7821 32.546 29.6976 32.8236C29.6131 33.1013 29.6276 33.3996 29.7385 33.6678C29.8494 33.936 30.0499 34.1574 30.3058 34.2943C30.5617 34.4312 30.8572 34.4751 31.1418 34.4185C31.4265 34.3619 31.6827 34.2084 31.8668 33.984C32.0508 33.7596 32.1514 33.4784 32.1513 33.1882C32.1503 32.8565 32.0189 32.5386 31.7853 32.3032Z" fill="url(#paint3_linear_23_330)"/>
<path d="M25.634 31.9361H16.5441C16.374 31.9265 16.2037 31.9516 16.0436 32.0101C15.8836 32.0686 15.7372 32.1591 15.6134 32.2761C15.4896 32.3931 15.3909 32.5342 15.3235 32.6907C15.2561 32.8471 15.2213 33.0157 15.2213 33.1861C15.2213 33.3565 15.2561 33.525 15.3235 33.6815C15.3909 33.838 15.4896 33.979 15.6134 34.096C15.7372 34.2131 15.8836 34.3036 16.0436 34.362C16.2037 34.4205 16.374 34.4457 16.5441 34.4361H25.634C25.9533 34.418 26.2536 34.2784 26.4733 34.046C26.6929 33.8136 26.8153 33.5059 26.8153 33.1861C26.8153 32.8663 26.6929 32.5586 26.4733 32.3262C26.2536 32.0937 25.9533 31.9542 25.634 31.9361Z" fill="url(#paint4_linear_23_330)"/>
</g>
<defs>
<linearGradient id="paint0_linear_23_330" x1="43.1666" y1="52.9671" x2="44.7645" y2="51.2929" gradientUnits="userSpaceOnUse">
<stop stop-color="#0073FF"/>
<stop offset="1" stop-color="#00DEFF"/>
</linearGradient>
<linearGradient id="paint1_linear_23_330" x1="21.1244" y1="45.4608" x2="54.7219" y2="10.6832" gradientUnits="userSpaceOnUse">
<stop stop-color="#0073FF"/>
<stop offset="1" stop-color="#00DEFF"/>
</linearGradient>
<linearGradient id="paint2_linear_23_330" x1="9.95648" y1="58.0595" x2="37.7111" y2="20.7064" gradientUnits="userSpaceOnUse">
<stop stop-color="#0073FF"/>
<stop offset="1" stop-color="#00DEFF"/>
</linearGradient>
<linearGradient id="paint3_linear_23_330" x1="30.0603" y1="34.0664" x2="31.6621" y2="32.3882" gradientUnits="userSpaceOnUse">
<stop stop-color="#0073FF"/>
<stop offset="1" stop-color="#00DEFF"/>
</linearGradient>
<linearGradient id="paint4_linear_23_330" x1="17.149" y1="34.0625" x2="17.7821" y2="30.9912" gradientUnits="userSpaceOnUse">
<stop stop-color="#0073FF"/>
<stop offset="1" stop-color="#00DEFF"/>
</linearGradient>
<clipPath id="clip0_23_330">
<rect width="64.0938" height="64.0938" fill="white" transform="translate(0.34375 0.765625)"/>
</clipPath>
</defs>
</svg>
