<svg width="61" height="66" viewBox="0 0 61 66" fill="none" xmlns="http://www.w3.org/2000/svg">
<g clip-path="url(#clip0_23_351)">
<path d="M54.54 15.5396H47.2174C46.8982 15.5576 46.598 15.6972 46.3784 15.9295C46.1588 16.1619 46.0364 16.4696 46.0364 16.7893C46.0364 17.109 46.1588 17.4167 46.3784 17.6491C46.598 17.8814 46.8982 18.021 47.2174 18.0391H54.54C55.27 18.0399 55.9699 18.3302 56.4861 18.8464C57.0023 19.3626 57.2927 20.0625 57.2934 20.7925V35.0767C57.2924 35.8631 56.9795 36.617 56.4234 37.1731C55.8674 37.7292 55.1135 38.042 54.327 38.0431H53.0373V28.8069C53.0357 27.4132 52.4813 26.077 51.4958 25.0915C50.5103 24.1059 49.1741 23.5516 47.7803 23.55H29.319V19.7327C29.3009 19.4135 29.1614 19.1133 28.929 18.8937C28.6966 18.6741 28.389 18.5517 28.0692 18.5517C27.7495 18.5517 27.4419 18.6741 27.2095 18.8937C26.9771 19.1133 26.8375 19.4135 26.8195 19.7327V23.55H5.97559C5.24533 23.55 4.54497 23.2599 4.0286 22.7435C3.51223 22.2271 3.22213 21.5268 3.22213 20.7965C3.22213 20.0663 3.51223 19.3659 4.0286 18.8495C4.54497 18.3332 5.24533 18.0431 5.97559 18.0431H14.258C14.428 18.0527 14.5983 18.0275 14.7583 17.969C14.9182 17.9106 15.0646 17.8201 15.1884 17.7031C15.3122 17.5861 15.4109 17.4451 15.4783 17.2886C15.5457 17.1322 15.5804 16.9636 15.5804 16.7933C15.5804 16.623 15.5457 16.4544 15.4783 16.298C15.4109 16.1415 15.3122 16.0005 15.1884 15.8835C15.0646 15.7665 14.9182 15.676 14.7583 15.6176C14.5983 15.5591 14.428 15.5339 14.258 15.5435H5.97559C4.58253 15.5451 3.24693 16.099 2.26152 17.0836C1.27611 18.0683 0.721273 19.4035 0.718628 20.7965C0.718628 20.8655 0.718627 20.9345 0.723626 21.0035C0.723626 21.0385 0.718628 21.0725 0.718628 21.1035V59.5958C0.720216 60.9896 1.27458 62.3258 2.26011 63.3113C3.24564 64.2969 4.58184 64.8512 5.97559 64.8528H54.54C55.9337 64.8512 57.2699 64.2969 58.2555 63.3113C59.241 62.3258 59.7954 60.9896 59.7969 59.5958V20.7965C59.7954 19.4028 59.241 18.0666 58.2555 17.081C57.2699 16.0955 55.9337 15.5411 54.54 15.5396ZM50.5348 59.5978C50.5339 60.3184 50.2509 61.01 49.7463 61.5245C49.2417 62.039 48.5558 62.3354 47.8353 62.3503H47.7773H47.7483H5.97559C5.24557 62.3495 4.54568 62.0592 4.02948 61.543C3.51328 61.0268 3.22293 60.3269 3.22213 59.5968V25.2726C4.04939 25.7841 5.00298 26.0545 5.97559 26.0535H47.7813C48.5113 26.0543 49.2112 26.3446 49.7274 26.8608C50.2436 27.377 50.534 28.0769 50.5348 28.8069V38.0471H39.27C38.2435 38.0354 37.225 38.2276 36.2733 38.6123C35.3216 38.9971 34.4557 39.5668 33.7257 40.2885C32.9957 41.0103 32.4162 41.8697 32.0206 42.8169C31.6251 43.7642 31.4215 44.7805 31.4215 45.8071C31.4215 46.8336 31.6251 47.8499 32.0206 48.7972C32.4162 49.7445 32.9957 50.6039 33.7257 51.3256C34.4557 52.0473 35.3216 52.6171 36.2733 53.0018C37.225 53.3866 38.2435 53.5787 39.27 53.567H50.5348V59.5978ZM57.2934 59.5978C57.2927 60.3279 57.0023 61.0277 56.4861 61.5439C55.9699 62.0602 55.27 62.3505 54.54 62.3513H52.2574C52.7684 61.5242 53.0385 60.571 53.0373 59.5988V53.569H53.7881C55.0464 53.5699 56.2728 53.1735 57.2924 52.4363L57.2934 59.5978ZM57.2934 47.5612C57.2924 48.4903 56.9228 49.381 56.2659 50.038C55.6089 50.6949 54.7182 51.0645 53.7891 51.0655H39.27C37.8758 51.0655 36.5387 50.5117 35.5528 49.5258C34.5669 48.5399 34.013 47.2028 34.013 45.8086C34.013 44.4143 34.5669 43.0772 35.5528 42.0913C36.5387 41.1055 37.8758 40.5516 39.27 40.5516H54.327C55.38 40.5525 56.4105 40.2475 57.2934 39.6738V47.5612Z" fill="url(#paint0_linear_23_351)"/>
<path d="M36.8945 8.92676C35.7314 8.92676 34.5944 9.27166 33.6273 9.91786C32.6602 10.5641 31.9064 11.4825 31.4613 12.5571C31.0162 13.6317 30.8998 14.8141 31.1267 15.9549C31.3536 17.0957 31.9137 18.1435 32.7361 18.966C33.5586 19.7884 34.6064 20.3485 35.7472 20.5754C36.888 20.8023 38.0704 20.6859 39.145 20.2408C40.2196 19.7957 41.1381 19.0419 41.7843 18.0748C42.4305 17.1077 42.7754 15.9707 42.7754 14.8076C42.7735 13.2485 42.1533 11.7537 41.0509 10.6513C39.9484 9.54879 38.4536 8.92861 36.8945 8.92676ZM36.8945 18.1849C36.2265 18.1849 35.5736 17.9869 35.0182 17.6157C34.4628 17.2446 34.0299 16.7172 33.7743 16.1C33.5187 15.4829 33.4518 14.8038 33.5821 14.1487C33.7124 13.4936 34.034 12.8918 34.5064 12.4195C34.9787 11.9471 35.5805 11.6255 36.2356 11.4952C36.8908 11.3648 37.5699 11.4317 38.187 11.6874C38.8041 11.943 39.3316 12.3759 39.7027 12.9313C40.0738 13.4867 40.2719 14.1396 40.2719 14.8076C40.2708 15.703 39.9146 16.5614 39.2815 17.1946C38.6484 17.8277 37.7899 18.1839 36.8945 18.1849Z" fill="url(#paint1_linear_23_351)"/>
<path d="M24.7529 0.770508C23.5898 0.770508 22.4528 1.11541 21.4857 1.76161C20.5186 2.4078 19.7648 3.32626 19.3197 4.40085C18.8746 5.47543 18.7582 6.65787 18.9851 7.79864C19.212 8.93941 19.7721 9.98728 20.5945 10.8097C21.417 11.6322 22.4648 12.1923 23.6056 12.4192C24.7464 12.6461 25.9288 12.5296 27.0034 12.0845C28.078 11.6394 28.9965 10.8857 29.6426 9.91856C30.2888 8.95146 30.6337 7.81447 30.6337 6.65135C30.6319 5.09222 30.0117 3.59748 28.9092 2.49501C27.8068 1.39254 26.312 0.77236 24.7529 0.770508V0.770508ZM24.7529 10.0287C24.0849 10.0287 23.432 9.8306 22.8766 9.45949C22.3212 9.08839 21.8883 8.56092 21.6327 7.94379C21.377 7.32667 21.3102 6.6476 21.4405 5.99246C21.5708 5.33732 21.8924 4.73554 22.3648 4.26321C22.8371 3.79088 23.4389 3.46922 24.094 3.33891C24.7492 3.20859 25.4282 3.27547 26.0454 3.5311C26.6625 3.78672 27.19 4.2196 27.5611 4.775C27.9322 5.3304 28.1302 5.98337 28.1302 6.65135C28.1292 7.54674 27.773 8.40517 27.1399 9.03831C26.5067 9.67145 25.6483 10.0276 24.7529 10.0287Z" fill="url(#paint2_linear_23_351)"/>
<path d="M46.1106 2.85475H45.4008V2.14489C45.3827 1.82566 45.2432 1.52545 45.0108 1.30584C44.7784 1.08622 44.4708 0.963867 44.151 0.963867C43.8313 0.963867 43.5237 1.08622 43.2913 1.30584C43.0589 1.52545 42.9193 1.82566 42.9013 2.14489V2.85475H42.1914C41.8722 2.87282 41.572 3.01236 41.3523 3.24475C41.1327 3.47714 41.0104 3.78477 41.0104 4.10451C41.0104 4.42425 41.1327 4.73187 41.3523 4.96426C41.572 5.19665 41.8722 5.33619 42.1914 5.35426H42.9013V6.06412C42.9193 6.38335 43.0589 6.68357 43.2913 6.90318C43.5237 7.12279 43.8313 7.24515 44.151 7.24515C44.4708 7.24515 44.7784 7.12279 45.0108 6.90318C45.2432 6.68357 45.3827 6.38335 45.4008 6.06412V5.35426H46.1106C46.4299 5.33619 46.7301 5.19665 46.9497 4.96426C47.1693 4.73187 47.2917 4.42425 47.2917 4.10451C47.2917 3.78477 47.1693 3.47714 46.9497 3.24475C46.7301 3.01236 46.4299 2.87282 46.1106 2.85475Z" fill="url(#paint3_linear_23_351)"/>
<path d="M20.7037 13.0049C20.372 13.0049 20.0539 13.1365 19.8192 13.3708C19.5845 13.6051 19.4524 13.923 19.4519 14.2546V19.3236C19.47 19.6429 19.6095 19.9431 19.8419 20.1627C20.0743 20.3823 20.3819 20.5047 20.7017 20.5047C21.0214 20.5047 21.329 20.3823 21.5614 20.1627C21.7938 19.9431 21.9333 19.6429 21.9514 19.3236V14.2546C21.9509 13.9237 21.8193 13.6064 21.5855 13.3722C21.3517 13.138 21.0346 13.0059 20.7037 13.0049Z" fill="url(#paint4_linear_23_351)"/>
<path d="M40.9161 45.0787C40.7114 44.8742 40.442 44.747 40.154 44.7188C39.866 44.6907 39.5771 44.7632 39.3365 44.9241C39.096 45.085 38.9187 45.3243 38.8348 45.6013C38.751 45.8783 38.7657 46.1758 38.8765 46.4431C38.9874 46.7104 39.1875 46.931 39.4428 47.0674C39.698 47.2037 39.9927 47.2473 40.2765 47.1908C40.5603 47.1343 40.8158 46.9811 40.9993 46.7573C41.1829 46.5336 41.2832 46.2531 41.2831 45.9637C41.2817 45.632 41.1499 45.3141 40.9161 45.0787Z" fill="url(#paint5_linear_23_351)"/>
<path d="M9.02104 33.313C8.68905 33.313 8.37066 33.4449 8.13591 33.6796C7.90116 33.9144 7.76929 34.2328 7.76929 34.5648V44.8697C7.78735 45.1889 7.92689 45.4892 8.15929 45.7088C8.39168 45.9284 8.6993 46.0507 9.01904 46.0507C9.33878 46.0507 9.6464 45.9284 9.87879 45.7088C10.1112 45.4892 10.2507 45.1889 10.2688 44.8697V34.5648C10.2688 34.2335 10.1375 33.9157 9.90358 33.681C9.66969 33.4464 9.35233 33.314 9.02104 33.313Z" fill="url(#paint6_linear_23_351)"/>
<path d="M9.90624 48.3043C9.70147 48.0998 9.43213 47.9726 9.14411 47.9444C8.85609 47.9162 8.5672 47.9888 8.32666 48.1497C8.08612 48.3106 7.90881 48.5499 7.82494 48.8269C7.74106 49.1039 7.75581 49.4013 7.86666 49.6687C7.97752 49.936 8.17763 50.1566 8.4329 50.293C8.68817 50.4293 8.98281 50.4729 9.26663 50.4164C9.55045 50.3598 9.8059 50.2066 9.98944 49.9829C10.173 49.7591 10.2733 49.4787 10.2732 49.1893C10.2722 48.8575 10.1403 48.5395 9.90624 48.3043Z" fill="url(#paint7_linear_23_351)"/>
</g>
<defs>
<linearGradient id="paint0_linear_23_351" x1="10.5415" y1="57.4568" x2="41.2723" y2="18.883" gradientUnits="userSpaceOnUse">
<stop stop-color="#0073FF"/>
<stop offset="1" stop-color="#00DEFF"/>
</linearGradient>
<linearGradient id="paint1_linear_23_351" x1="32.9693" y1="18.9244" x2="40.4809" y2="11.0542" gradientUnits="userSpaceOnUse">
<stop stop-color="#0073FF"/>
<stop offset="1" stop-color="#00DEFF"/>
</linearGradient>
<linearGradient id="paint2_linear_23_351" x1="20.8277" y1="10.7682" x2="28.3392" y2="2.89797" gradientUnits="userSpaceOnUse">
<stop stop-color="#0073FF"/>
<stop offset="1" stop-color="#00DEFF"/>
</linearGradient>
<linearGradient id="paint3_linear_23_351" x1="42.0548" y1="6.30308" x2="46.0663" y2="2.10002" gradientUnits="userSpaceOnUse">
<stop stop-color="#0073FF"/>
<stop offset="1" stop-color="#00DEFF"/>
</linearGradient>
<linearGradient id="paint4_linear_23_351" x1="19.8675" y1="19.3798" x2="22.8522" y2="18.3376" gradientUnits="userSpaceOnUse">
<stop stop-color="#0073FF"/>
<stop offset="1" stop-color="#00DEFF"/>
</linearGradient>
<linearGradient id="paint5_linear_23_351" x1="39.1971" y1="46.8397" x2="40.795" y2="45.1655" gradientUnits="userSpaceOnUse">
<stop stop-color="#0073FF"/>
<stop offset="1" stop-color="#00DEFF"/>
</linearGradient>
<linearGradient id="paint6_linear_23_351" x1="8.18488" y1="44.1403" x2="11.3977" y2="43.4798" gradientUnits="userSpaceOnUse">
<stop stop-color="#0073FF"/>
<stop offset="1" stop-color="#00DEFF"/>
</linearGradient>
<linearGradient id="paint7_linear_23_351" x1="8.18724" y1="50.0652" x2="9.78514" y2="48.391" gradientUnits="userSpaceOnUse">
<stop stop-color="#0073FF"/>
<stop offset="1" stop-color="#00DEFF"/>
</linearGradient>
<clipPath id="clip0_23_351">
<rect width="60.0781" height="65.0841" fill="white" transform="translate(0.21875 0.270508)"/>
</clipPath>
</defs>
</svg>
