<svg width="66" height="59" viewBox="0 0 66 59" fill="none" xmlns="http://www.w3.org/2000/svg">
<g clip-path="url(#clip0_23_319)">
<path d="M40.9248 38.2297L21.9257 23.4025C21.4944 23.0679 20.9779 22.8613 20.4349 22.806C19.8919 22.7507 19.3443 22.8491 18.8545 23.0898C18.3647 23.3305 17.9523 23.704 17.6644 24.1677C17.3765 24.6314 17.2245 25.1666 17.2259 25.7124V32.344H2.34569C2.01365 32.344 1.69522 32.4759 1.46043 32.7107C1.22565 32.9455 1.09375 33.2639 1.09375 33.596L1.09375 47.4833C1.09375 47.8153 1.22565 48.1337 1.46043 48.3685C1.69522 48.6033 2.01365 48.7352 2.34569 48.7352H17.2219V55.3669C17.219 55.9133 17.37 56.4495 17.6576 56.9141C17.9452 57.3788 18.3578 57.753 18.8482 57.994C19.3386 58.2351 19.887 58.3332 20.4306 58.277C20.9741 58.2209 21.4909 58.0129 21.9217 57.6768L40.9208 42.8495C41.2714 42.5752 41.555 42.2246 41.75 41.8244C41.945 41.4242 42.0464 40.9848 42.0464 40.5396C42.0464 40.0944 41.945 39.6551 41.75 39.2548C41.555 38.8546 41.2714 38.5041 40.9208 38.2297H40.9248ZM3.59762 46.2293V34.8479H18.4739C18.8059 34.8479 19.1244 34.716 19.3591 34.4812C19.5939 34.2464 19.7258 33.928 19.7258 33.596V25.7124C19.7232 25.6328 19.7441 25.5542 19.7859 25.4864C19.8277 25.4187 19.8885 25.3647 19.9608 25.3314C20.0282 25.2956 20.1048 25.2807 20.1807 25.2887C20.2566 25.2968 20.3283 25.3273 20.3868 25.3764L34.4461 36.3488L19.7268 47.6963V47.4833C19.7268 47.1512 19.5949 46.8328 19.3601 46.598C19.1254 46.3632 18.8069 46.2313 18.4749 46.2313H3.59363L3.59762 46.2293ZM39.3848 40.8736L20.3858 55.7009C20.3273 55.75 20.2556 55.7805 20.1797 55.7885C20.1038 55.7965 20.0272 55.7817 19.9598 55.7459C19.8871 55.713 19.8259 55.6592 19.784 55.5913C19.7422 55.5234 19.7215 55.4446 19.7248 55.3649V50.8561L36.482 37.9367L39.3818 40.2006C39.4324 40.2408 39.4733 40.2919 39.5014 40.3501C39.5295 40.4082 39.5441 40.472 39.5441 40.5366C39.5441 40.6012 39.5295 40.665 39.5014 40.7232C39.4733 40.7813 39.4324 40.8324 39.3818 40.8726L39.3848 40.8736Z" fill="url(#paint0_linear_23_319)"/>
<path d="M63.9356 10.9134H51.1952V4.28169C51.1966 3.7359 51.0447 3.20069 50.7568 2.73703C50.4689 2.27336 50.0565 1.89988 49.5667 1.65914C49.0769 1.41839 48.5293 1.32006 47.9863 1.37534C47.4433 1.43062 46.9267 1.63729 46.4955 1.97181L27.4964 16.7991C27.1456 17.0733 26.8619 17.4238 26.6667 17.824C26.4716 18.2243 26.3702 18.6637 26.3702 19.109C26.3702 19.5542 26.4716 19.9936 26.6667 20.3939C26.8619 20.7941 27.1456 21.1446 27.4964 21.4188L46.4955 36.2461C46.9267 36.5806 47.4433 36.7873 47.9863 36.8426C48.5293 36.8978 49.0769 36.7995 49.5667 36.5588C50.0565 36.318 50.4689 35.9445 50.7568 35.4809C51.0447 35.0172 51.1966 34.482 51.1952 33.9362V27.3045H63.9356C64.2676 27.3045 64.5861 27.1726 64.8209 26.9379C65.0556 26.7031 65.1875 26.3846 65.1875 26.0526V12.1653C65.1875 11.8333 65.0556 11.5148 64.8209 11.28C64.5861 11.0453 64.2676 10.9134 63.9356 10.9134ZM62.6837 24.8007H49.9433C49.6113 24.8007 49.2928 24.9326 49.0581 25.1674C48.8233 25.4021 48.6914 25.7206 48.6914 26.0526V33.9362C48.694 34.0158 48.6731 34.0944 48.6313 34.1621C48.5895 34.2299 48.5287 34.2838 48.4564 34.3172C48.389 34.3531 48.3124 34.368 48.2365 34.36C48.1606 34.352 48.0888 34.3214 48.0304 34.2722L33.7011 23.0918L37.5629 20.2179C37.6948 20.1194 37.806 19.9959 37.8902 19.8544C37.9744 19.713 38.0299 19.5563 38.0535 19.3934C38.0772 19.2305 38.0685 19.0645 38.028 18.905C37.9874 18.7454 37.9159 18.5954 37.8174 18.4635C37.7189 18.3316 37.5954 18.2204 37.454 18.1362C37.3125 18.052 37.1558 17.9965 36.9929 17.9729C36.83 17.9493 36.664 17.9579 36.5045 17.9985C36.3449 18.039 36.1949 18.1105 36.063 18.209L31.6532 21.4918L29.0324 19.4459C28.9818 19.4058 28.9409 19.3547 28.9128 19.2965C28.8847 19.2383 28.8701 19.1746 28.8701 19.11C28.8701 19.0453 28.8847 18.9816 28.9128 18.9234C28.9409 18.8652 28.9818 18.8141 29.0324 18.774L48.0314 3.94671C48.0898 3.8975 48.1616 3.8669 48.2375 3.85888C48.3134 3.85086 48.39 3.86578 48.4574 3.90171C48.5301 3.93455 48.5913 3.98837 48.6332 4.05625C48.675 4.12414 48.6957 4.203 48.6924 4.28269V8.81047L45.1486 11.4483C45.0166 11.5468 44.9054 11.6703 44.8213 11.8118C44.7371 11.9533 44.6816 12.1099 44.6579 12.2728C44.6343 12.4357 44.643 12.6017 44.6835 12.7613C44.724 12.9208 44.7956 13.0708 44.8941 13.2027C44.9925 13.3347 45.116 13.4459 45.2575 13.53C45.399 13.6142 45.5556 13.6697 45.7186 13.6933C45.8815 13.717 46.0474 13.7083 46.207 13.6678C46.3666 13.6273 46.5166 13.5557 46.6485 13.4572L48.6974 11.9323V12.1663C48.6974 12.4983 48.8293 12.8168 49.0641 13.0516C49.2988 13.2863 49.6173 13.4182 49.9493 13.4182H62.6897L62.6837 24.8007Z" fill="url(#paint1_linear_23_319)"/>
<path d="M42.5297 15.3381C42.4321 15.102 42.2646 14.9013 42.0496 14.7632C41.8346 14.625 41.5825 14.556 41.3272 14.5653C41.0718 14.5746 40.8254 14.6618 40.6211 14.8152C40.4167 14.9686 40.2642 15.1809 40.184 15.4235C40.1038 15.6661 40.0998 15.9275 40.1724 16.1725C40.2451 16.4175 40.391 16.6343 40.5905 16.794C40.79 16.9537 41.0336 17.0484 41.2886 17.0656C41.5435 17.0828 41.7976 17.0216 42.0167 16.8901C42.2728 16.7346 42.4651 16.493 42.5591 16.2086C42.6531 15.9242 42.6427 15.6156 42.5297 15.3381Z" fill="url(#paint2_linear_23_319)"/>
</g>
<defs>
<linearGradient id="paint0_linear_23_319" x1="7.90289" y1="52.9679" x2="30.199" y2="26.0203" gradientUnits="userSpaceOnUse">
<stop stop-color="#0073FF"/>
<stop offset="1" stop-color="#00DEFF"/>
</linearGradient>
<linearGradient id="paint1_linear_23_319" x1="32.8243" y1="31.5337" x2="55.3108" y2="5.77001" gradientUnits="userSpaceOnUse">
<stop stop-color="#0073FF"/>
<stop offset="1" stop-color="#00DEFF"/>
</linearGradient>
<linearGradient id="paint2_linear_23_319" x1="48.8127" y1="3.04606" x2="34.8691" y2="7.94944" gradientUnits="userSpaceOnUse">
<stop stop-color="#4F6A7B"/>
<stop offset="1" stop-color="#53C6E2"/>
</linearGradient>
<clipPath id="clip0_23_319">
<rect width="65.0938" height="57.9831" fill="white" transform="translate(0.59375 0.812988)"/>
</clipPath>
</defs>
</svg>
